# xmcd
#
# Track frame offsets: 
#        150
#        21661
#        40161
#        63582
#        79788
#        93353
#        113107
#        127602
#        147658
#        170734
#        185377
#        201127
#        216757
#        235539
#        252758
#
# Disc length: 3558 seconds
#
# Revision: 0
# Processed by: cddbd v1.5.2PL0 Copyright (c) Steve Scherf et al.
# Submitted via: ExactAudioCopy v1.0b1
#
DISCID=d00de40f
DTITLE=Deso Dogg - Gast Ist König
DYEAR=2008
DGENRE=Hip-Hop
TTITLE0=Wir roll´n durch die Hood | Deso Dogg and Jasha feat. West Said
TTITLE1=3 Leben 2 Städte | Nazar feat. Deso Dogg, Mc Bogy
TTITLE2=Panzerfaust | Massaka feat. Deso Dogg, Kaisa
TTITLE3=Rausch | Deso Dogg and Jasha feat. Lil Deso, Stan da Man
TTITLE4=Bang Bang | Deso Dogg feat. Kalusha
TTITLE5=Danke Deutschland | VS Mafia feat. Deso Dogg, Kaisa
TTITLE6=Gangsta Inferno | Woroc feat. Deso Dogg
TTITLE7=Industriefick | Jasha, Deso Dogg, Stan da Man
TTITLE8=Nazi Tot 3 | Kaisa and Hassmonstas feat. Drama,Deso Dogg,Dean Da
TTITLE8=wson
TTITLE9=Strassenreport | Colos feat. Deso Dogg
TTITLE10=Wenn Sterne Fall´n | Deso Dogg feat. Sahira
TTITLE11=Betonmacht | Mc Bogy feat. Deso Dogg
TTITLE12=Mein Block | Farid Bang feat. Deso Dogg
TTITLE13=Wir Bomben Eure Szene | Deso Dogg feat. Zaza
TTITLE14=VS Mafia Deso Dogg | Colos and Woroc feat. Deso Dogg
EXTD=
EXTT0=
EXTT1=
EXTT2=
EXTT3=
EXTT4=
EXTT5=
EXTT6=
EXTT7=
EXTT8=
EXTT9=
EXTT10=
EXTT11=
EXTT12=
EXTT13=
EXTT14=
PLAYORDER=
